<?xml version="1.0" encoding="UTF-8"?>
<svg xmlns="http://www.w3.org/2000/svg" width="24" height="24" viewBox="0 0 24 24" fill="#25D366">
  <path fill-rule="evenodd" clip-rule="evenodd" d="M20.5025 3.4975C18.2525 1.25 15.2525 0 12 0C5.4475 0 0.005 5.4425 0.005 12C0.005 14.115 0.5725 16.175 1.635 18L0 24L6.145 22.395C7.905 23.365 9.925 23.875 12 23.875C18.5525 23.875 24 18.4325 24 11.875C24 8.6225 22.75 5.7475 20.5025 3.4975ZM12 21.875C10.205 21.875 8.44 21.39 6.91 20.48L6.55 20.265L2.8325 21.175L3.75 17.555L3.515 17.175C2.52 15.59 1.995 13.82 1.995 12C1.995 6.49 6.49 1.995 12 1.995C14.69 1.995 17.21 3.04 19.075 4.9275C20.9575 6.795 22 9.31 22 12C22 17.51 17.51 21.875 12 21.875ZM17.445 14.525C17.165 14.385 15.73 13.68 15.475 13.595C15.22 13.51 15.035 13.465 14.85 13.75C14.665 14.035 14.11 14.68 13.945 14.865C13.78 15.05 13.615 15.0725 13.335 14.9325C13.055 14.7925 12.1075 14.47 11 13.4675C10.13 12.695 9.5625 11.745 9.3975 11.465C9.2325 11.185 9.3775 11.03 9.5175 10.8875C9.6425 10.76 9.795 10.555 9.9375 10.39C10.08 10.225 10.1225 10.105 10.2075 9.92C10.2925 9.735 10.2475 9.57 10.1825 9.43C10.1175 9.29 9.555 7.85 9.325 7.29C9.095 6.73 8.865 6.8175 8.7 6.8175C8.535 6.8175 8.35 6.795 8.165 6.795C7.98 6.795 7.6825 6.86 7.4275 7.14C7.1725 7.42 6.425 8.125 6.425 9.565C6.425 11.005 7.4725 12.3875 7.615 12.5725C7.7575 12.7575 9.545 15.5125 12.2825 16.7825C12.9625 17.0825 13.4975 17.26 13.9125 17.3975C14.5925 17.62 15.2125 17.59 15.705 17.5225C16.255 17.4475 17.42 16.83 17.6525 16.185C17.885 15.54 17.885 14.9975 17.82 14.8675C17.755 14.7375 17.5675 14.6725 17.445 14.525Z" />
</svg>